<svg width="1440"
    height="362"
    fill="none"
    viewBox="0 0 1440 362"
    xmlns="http://www.w3.org/2000/svg">
    <path fill-rule="evenodd"
        clip-rule="evenodd"
        d="M180 2C80.5887 2 0 82.5887 0 182C0 281.411 80.5887 362 180 362C279.411 362 360 281.411 360 182C360 181.332 359.996 180.666 359.989 180H333.987C333.996 180.666 334 181.332 334 182C334 267.052 265.052 336 180 336C94.9482 336 26 267.052 26 182C26 96.9482 94.9482 28 180 28V2Z"
        fill="#718096" />
    <path fill-rule="evenodd"
        clip-rule="evenodd"
        d="M540 335C454.948 335 386 266.052 386 181C386 95.9482 454.948 27 540 27C624.718 27 693.459 95.4084 693.997 180H719.997C719.459 81.0489 639.078 1 540 1C440.589 1 360 81.5887 360 181C360 280.411 440.589 361 540 361V335Z"
        fill="#718096" />
    <path fill-rule="evenodd"
        clip-rule="evenodd"
        d="M720 180C720 279.411 800.589 360 900 360C999.411 360 1080 279.411 1080 180C1080 80.5887 999.411 0 900 0V26C985.052 26 1054 94.9482 1054 180C1054 265.052 985.052 334 900 334C814.948 334 746 265.052 746 180H720Z"
        fill="#718096" />
    <path fill-rule="evenodd"
        clip-rule="evenodd"
        d="M1414 182C1414 267.052 1345.05 336 1260 336V362C1359.41 362 1440 281.411 1440 182C1440 82.5887 1359.41 2 1260 2C1161.26 2 1081.08 81.5101 1080.01 180H1106.01C1107.08 95.8699 1175.62 28 1260 28C1345.05 28 1414 96.9482 1414 182Z"
        fill="#718096" />
</svg>